<svg height="422pt" viewBox="-41 0 422 422.65259" width="422pt" xmlns="http://www.w3.org/2000/svg"><path d="m307.527344 200.785156c0 84.832032-68.769532 153.601563-153.601563 153.601563s-153.597656-68.769531-153.597656-153.601563c0-84.832031 68.765625-153.597656 153.597656-153.597656s153.601563 68.765625 153.601563 153.597656zm0 0" fill="#efefd2"/><path d="m206.824219 288.152344c-3.773438 0-6.828125-3.050782-6.828125-6.824219 0-47.921875-8.019532-184.789063-8.101563-186.167969-.222656-3.757812 2.652344-6.992187 6.414063-7.214844 3.675781-.226562 6.992187 2.648438 7.214844 6.414063.085937 1.382813 8.128906 138.652344 8.128906 186.96875-.003906 3.773437-3.058594 6.824219-6.828125 6.824219zm0 0" fill="#4c241d"/><path d="m284.390625 272.464844h-158.054687l18.941406 117.296875h120.171875zm0 0" fill="#fff"/><path d="m265.449219 396.585938h-120.171875c-3.347656 0-6.207032-2.433594-6.738282-5.738282l-18.945312-117.292968c-.320312-1.972657.25-3.988282 1.542969-5.515626 1.296875-1.519531 3.199219-2.398437 5.199219-2.398437h158.054687c2 0 3.898437.882813 5.195313 2.398437 1.296874 1.527344 1.867187 3.542969 1.542968 5.515626l-18.941406 117.292968c-.53125 3.304688-3.390625 5.738282-6.738281 5.738282zm-114.355469-13.652344h108.542969l16.742187-103.640625h-142.023437zm0 0" fill="#4c241d"/><path d="m145.277344 388.519531 4.210937 27.304688h111.75l4.210938-27.304688zm0 0" fill="#bf7e68"/><path d="m261.238281 422.652344h-111.75c-3.371093 0-6.230469-2.460938-6.746093-5.785156l-4.210938-27.308594c-.304688-1.964844.265625-3.972656 1.5625-5.488282 1.296875-1.503906 3.191406-2.378906 5.183594-2.378906h120.171875c1.992187 0 3.882812.875 5.183593 2.378906 1.296876 1.515626 1.867188 3.519532 1.5625 5.488282l-4.210937 27.308594c-.511719 3.324218-3.375 5.785156-6.746094 5.785156zm-105.894531-13.652344h100.042969l2.101562-13.652344h-104.25zm0 0" fill="#4c241d"/><path d="m233.539062 80.601562c-.023437 20.160157-16.382812 36.480469-36.542968 36.457032-20.160156-.023438-36.480469-16.386719-36.457032-36.542969.023438-20.160156 5.230469-73.710937 25.390626-73.6875 20.15625.023437 47.636718 53.613281 47.609374 73.773437zm0 0" fill="#a9ba5a"/><path d="m197.035156 123.886719c-.015625 0-.03125 0-.042968 0-23.898438-.035157-43.308594-19.492188-43.277344-43.378907.003906-3.289062.460937-80.507812 32.199218-80.507812h.019532c26.800781.0351562 54.457031 59.878906 54.433594 80.605469-.027344 23.875-19.464844 43.28125-43.332032 43.28125zm-11.121094-110.234375c-10.230468 0-18.511718 36.574218-18.546874 66.867187-.019532 16.367188 13.273437 29.695313 29.640624 29.714844h.027344c16.347656 0 29.660156-13.289063 29.679688-29.640625.023437-19.441406-26.746094-66.921875-40.796875-66.941406zm0 0" fill="#4c241d"/><path d="m156.003906 190.160156c22.933594 11.496094 29.804688 20.679688 27.492188 36.734375-2.871094 19.953125-28.707032 28.648438-67.691406 14.84375-19.003907-6.730469-51.308594-32.761719-40.273438-49.628906s62.453125-10.984375 80.472656-1.949219zm0 0" fill="#a9ba5a"/><path d="m150.21875 255.320312c-10.835938 0-23.257812-2.386718-36.695312-7.148437-15.242188-5.394531-39.585938-22.441406-45.660157-40.421875-2.386719-7.074219-1.714843-13.777344 1.953125-19.386719 13.960938-21.324219 69.832032-14.050781 89.25-4.304687 21.589844 10.820312 34.339844 21.925781 31.1875 43.8125-1.296875 9.015625-6.21875 16.339844-14.222656 21.179687-6.914062 4.183594-15.671875 6.269531-25.8125 6.269531zm-40.855469-67.214843c-13.097656 0-24.542969 2.269531-28.121093 7.742187-.847657 1.292969-1.8125 3.480469-.445313 7.539063 3.976563 11.78125 23.644531 27.09375 37.28125 31.921875 21.757813 7.699218 40.304687 8.453125 50.882813 2.058594 4.457031-2.695313 7.070312-6.539063 7.777343-11.441407 1.644531-11.4375-1.398437-18.441406-23.792969-29.664062-9.769531-4.894531-27.867187-8.15625-43.582031-8.15625zm0 0" fill="#4c241d"/><path d="m211.960938 272.464844c-.550782 0-1.105469-.066406-1.664063-.207032-3.660156-.910156-5.878906-4.617187-4.96875-8.273437 7.648437-30.59375 30.792969-38.625 31.769531-38.953125 3.585938-1.199219 7.445313.742188 8.640625 4.3125 1.183594 3.5625-.726562 7.410156-4.273437 8.621094-.777344.273437-17.140625 6.347656-22.886719 29.328125-.777344 3.105469-3.5625 5.171875-6.617187 5.171875zm0 0" fill="#4c241d"/><path d="m158.085938 119.304688c15.453124 14.699218 18.695312 23.671874 12.964843 35.886718-7.121093 15.179688-29.78125 15.832032-57.449219-4.601562-13.484374-9.957032-32.875-38.496094-20.007812-49.238282 12.871094-10.746093 52.34375 6.398438 64.492188 17.953126zm0 0" fill="#a9ba5a"/><path d="m151.617188 173.125c-12.332032 0-26.933594-5.867188-42.070313-17.039062-11.007813-8.132813-26.511719-27.984376-26.988281-44.121094-.195313-6.566406 2.109375-12.050782 6.664062-15.851563 17.410156-14.535156 60.703125 6.007813 73.566406 18.246094h.003907c14.917969 14.191406 22.542969 26.460937 14.441406 43.734375-3.367187 7.179688-9.320313 12.023438-17.210937 14.023438-2.660157.675781-5.46875 1.007812-8.40625 1.007812zm-46.195313-68.445312c-3.261719 0-5.867187.59375-7.449219 1.914062-.871094.726562-1.855468 1.945312-1.765625 4.964844.296875 10.027344 11.980469 26.546875 21.453125 33.539062 14.941406 11.035156 29.527344 16.179688 39.007813 13.789063 3.902343-.996094 6.585937-3.148438 8.203125-6.59375 3.355468-7.148438 4.367187-12.960938-11.492188-28.039063h.003906c-10.164062-9.667968-34.578124-19.574218-47.960937-19.574218zm0 0" fill="#4c241d"/><path d="m273.15625 249.699219c-22.355469 1.492187-31.597656-2.382813-36.96875-15.5-6.667969-16.296875 8.941406-34.28125 44.414062-41.144531 17.289063-3.339844 53.144532 1.960937 52.300782 19.550781-.847656 17.589843-42.171875 35.917969-59.746094 37.09375zm0 0" fill="#a9ba5a"/><path d="m264.875 256.832031c-16.757812 0-28.5625-4.300781-35.003906-20.046875-3.113282-7.613281-2.636719-15.558594 1.378906-22.984375 7.0625-13.066406 24.128906-22.820312 48.054688-27.449219 14.046874-2.726562 40.28125-.601562 53.015624 10.425782 5.136719 4.453125 7.695313 10.035156 7.402344 16.15625-1.089844 22.699218-46.953125 42.296875-66.113281 43.578125-3.042969.203125-5.957031.320312-8.734375.320312zm26.886719-57.90625c-3.597657 0-6.980469.273438-9.867188.824219-19.253906 3.734375-33.699219 11.410156-38.636719 20.542969-2.03125 3.757812-2.285156 7.574219-.753906 11.320312 3.664063 8.953125 8.925782 12.730469 30.195313 11.269531h.003906c16.773437-1.117187 52.808594-18.671874 53.378906-30.605468.054688-1.167969-.164062-2.980469-2.703125-5.179688-6.132812-5.3125-19.972656-8.171875-31.617187-8.171875zm0 0" fill="#4c241d"/><path d="m265.921875 170.851562c-17.375 12.371094-26.800781 13.84375-37.699219 5.890626-13.542968-9.878907-9.871094-32.25 15.457032-55.519532 12.347656-11.339844 44.054687-24.9375 52.152343-10.257812 8.097657 14.675781-16.253906 50.164062-29.910156 59.886718zm0 0" fill="#a9ba5a"/><g fill="#4c241d"><path d="m241.519531 188.5c-5.6875 0-11.355469-1.894531-17.316406-6.238281-6.410156-4.675781-10.035156-11.441407-10.496094-19.570313-.804687-14.21875 8.203125-30.730468 25.355469-46.492187 10.078125-9.253907 32.511719-20.671875 48.449219-18.097657 6.484375 1.058594 11.433593 4.367188 14.300781 9.558594 10.957031 19.875-17.464844 58.453125-31.929688 68.753906 0 0 0 0-.003906 0-10.285156 7.324219-19.339844 12.085938-28.359375 12.085938zm41.09375-77.125c-10.265625 0-26.378906 7.585938-34.3125 14.878906-13.679687 12.566406-21.515625 25.902344-20.960937 35.671875.226562 4.019531 1.828125 7.0625 4.90625 9.308594 6.375 4.640625 11.894531 6.730469 29.714844-5.941406 14.210937-10.121094 32.980468-41.8125 27.894531-51.03125-.546875-.992188-1.558594-2.195313-4.546875-2.679688-.839844-.140625-1.742188-.207031-2.695313-.207031zm-16.691406 59.476562h.066406zm0 0"/><path d="m205.46875 222.679688c-.554688 0-1.125-.066407-1.691406-.214844-3.65625-.933594-5.859375-4.652344-4.925782-8.296875 4.445313-17.414063 10.710938-36.167969 23.4375-43.242188 3.300782-1.847656 7.453126-.648437 9.28125 2.652344 1.832032 3.296875.644532 7.449219-2.648437 9.28125-8.339844 4.636719-13.609375 22.015625-16.84375 34.679687-.785156 3.085938-3.5625 5.140626-6.609375 5.140626zm0 0"/><path d="m205.125 204.199219c-2.808594 0-5.441406-1.746094-6.433594-4.546875-7.492187-21.125-17.171875-33.121094-29.578125-36.679688-3.625-1.03125-5.722656-4.8125-4.683593-8.4375 1.039062-3.621094 4.816406-5.722656 8.441406-4.679687 16.957031 4.851562 29.613281 19.652343 38.6875 45.238281 1.257812 3.554688-.597656 7.453125-4.152344 8.714844-.753906.265625-1.523438.390625-2.28125.390625zm0 0"/><path d="m205.46875 275.054688c-.035156 0-.066406 0-.097656 0-3.769532-.054688-6.78125-3.15625-6.730469-6.921876.292969-21.355468-18.34375-38.1875-18.53125-38.355468-2.816406-2.503906-3.070313-6.820313-.5625-9.636719 2.507813-2.808594 6.820313-3.074219 9.636719-.5625.957031.855469 23.484375 21.222656 23.109375 48.742187-.054688 3.738282-3.101563 6.734376-6.824219 6.734376zm0 0"/></g></svg>