<?xml version="1.0" encoding="utf-8"?>
<!-- Generator: Adobe Illustrator 16.0.0, SVG Export Plug-In . SVG Version: 6.00 Build 0)  -->
<!DOCTYPE svg PUBLIC "-//W3C//DTD SVG 1.1//EN" "http://www.w3.org/Graphics/SVG/1.1/DTD/svg11.dtd">
<svg version="1.1" id="圖層_1" xmlns="http://www.w3.org/2000/svg" xmlns:xlink="http://www.w3.org/1999/xlink" x="0px" y="0px"
	 width="470px" height="470px" viewBox="0 0 470 470" enable-background="new 0 0 470 470" xml:space="preserve">
<g>
	<path fill="#FEDB41" d="M355.391,235c0,66.488-53.902,120.391-120.391,120.391S114.61,301.488,114.61,235
		S168.512,114.609,235,114.609S355.391,168.512,355.391,235z"/>
	<g>
		<path fill="#083863" d="M235,104.609c-72.012,0-130.391,58.379-130.391,130.391S162.989,365.391,235,365.391
			S365.391,307.012,365.391,235C365.309,163.02,306.981,104.691,235,104.609z M235,345.391
			c-60.965,0-110.391-49.426-110.391-110.391S174.035,124.609,235,124.609S345.391,174.035,345.391,235
			C345.321,295.938,295.938,345.32,235,345.391z"/>
		<path fill="#083863" d="M245,61V10c0-5.523-4.477-10-10-10s-10,4.477-10,10v51c0,5.523,4.477,10,10,10S245,66.523,245,61z"/>
		<path fill="#083863" d="M235,399c-5.523,0-10,4.477-10,10v51c0,5.523,4.477,10,10,10s10-4.477,10-10v-51
			C245,403.477,240.524,399,235,399z"/>
		<path fill="#083863" d="M460,225h-51c-5.523,0-10,4.477-10,10s4.477,10,10,10h51c5.523,0,10-4.477,10-10S465.524,225,460,225z"/>
		<path fill="#083863" d="M71,235c0-5.523-4.477-10-10-10H10c-5.523,0-10,4.477-10,10s4.477,10,10,10h51
			C66.524,245,71,240.523,71,235z"/>
		<path fill="#083863" d="M365.262,118.883l35.469-35.473c3.875-3.91,3.863-10.219-0.031-14.109
			c-3.891-3.895-10.199-3.906-14.109-0.031l-35.473,35.469c-2.543,2.523-3.543,6.215-2.621,9.676c0.922,3.465,3.625,6.168,7.09,7.09
			C359.047,122.426,362.739,121.426,365.262,118.883z"/>
		<path fill="#083863" d="M104.739,351.117L69.27,386.59c-2.547,2.523-3.547,6.211-2.625,9.676c0.922,3.461,3.629,6.168,7.09,7.09
			c3.465,0.922,7.152-0.078,9.676-2.625l35.473-35.469c3.875-3.91,3.859-10.219-0.031-14.113
			C114.957,347.258,108.649,347.242,104.739,351.117z"/>
		<path fill="#083863" d="M365.262,351.117c-3.91-3.875-10.219-3.859-14.113,0.031c-3.891,3.895-3.906,10.203-0.031,14.113
			l35.473,35.469c3.91,3.875,10.219,3.863,14.109-0.031c3.895-3.891,3.906-10.199,0.031-14.109L365.262,351.117z"/>
		<path fill="#083863" d="M104.739,118.883c3.91,3.875,10.219,3.859,14.113-0.031c3.891-3.895,3.906-10.203,0.031-14.113
			L83.41,69.27c-3.91-3.875-10.219-3.863-14.109,0.031C65.406,73.191,65.395,79.5,69.27,83.41L104.739,118.883z"/>
	</g>
</g>
</svg>
