<?xml version="1.0" encoding="utf-8"?>
<!-- Generator: Adobe Illustrator 16.0.0, SVG Export Plug-In . SVG Version: 6.00 Build 0)  -->
<!DOCTYPE svg PUBLIC "-//W3C//DTD SVG 1.1//EN" "http://www.w3.org/Graphics/SVG/1.1/DTD/svg11.dtd">
<svg version="1.1" id="Capa_1" xmlns="http://www.w3.org/2000/svg" xmlns:xlink="http://www.w3.org/1999/xlink" x="0px" y="0px"
	 width="612px" height="792px" viewBox="0 0 612 792" enable-background="new 0 0 612 792" xml:space="preserve">
<g>
	<path fill="#80C56E" d="M479.393,355.536c0.446,0.136,0.672,0.618,0.49,1.048c-3.02,7.154-26.803,60.818-68.558,80.32
		c-51.859,24.224-73.362-14.67-73.362-14.67s-16.025-41.452,35.835-65.675C415.553,337.057,471.969,353.26,479.393,355.536z"/>
	<path fill="#66AD66" d="M411.325,436.906c41.755-19.504,65.538-73.167,68.558-80.32c0.182-0.431-0.043-0.912-0.49-1.048
		l-141.431,66.699C337.962,422.234,359.466,461.128,411.325,436.906z"/>
	<path fill="#80C56E" d="M132.607,355.536c-0.445,0.136-0.672,0.618-0.49,1.048c3.02,7.154,26.803,60.818,68.558,80.32
		c51.859,24.224,73.362-14.67,73.362-14.67s16.025-41.452-35.835-65.675C196.448,337.057,140.031,353.26,132.607,355.536z"/>
	<path fill="#66AD66" d="M200.674,436.906c51.859,24.223,73.362-14.67,73.362-14.67l-141.885-66.32
		c-0.106,0.198-0.133,0.438-0.036,0.669C135.137,363.738,158.919,417.402,200.674,436.906z"/>
	<g>
		<path fill="#0642FF" d="M331.804,128.934c0,23.261-11.553,66.957-25.804,66.957c-14.252,0-25.805-43.694-25.805-66.957
			c0-23.262,11.553-29.969,25.805-29.969C320.251,98.965,331.804,105.673,331.804,128.934z"/>
		<path fill="#0642FF" d="M331.804,302.859c0-23.261-11.553-66.957-25.804-66.957c-14.252,0-25.805,43.694-25.805,66.957
			s11.553,29.969,25.805,29.969C320.251,332.828,331.804,326.12,331.804,302.859z"/>
	</g>
	<g>
		<path fill="#00B7FF" d="M385.738,172.652c-16.447,16.447-55.514,39.175-65.591,29.099c-10.078-10.077,12.649-49.144,29.099-65.592
			c16.448-16.447,29.36-13.021,39.438-2.945C398.761,143.291,402.187,156.204,385.738,172.652z"/>
		<path fill="#00B7FF" d="M262.755,295.634c16.447-16.447,39.175-55.514,29.099-65.591c-10.077-10.078-49.145,12.65-65.592,29.099
			c-16.447,16.447-13.021,29.36-2.945,39.438C233.395,308.657,246.307,312.083,262.755,295.634z"/>
	</g>
	<g>
		<path fill="#0642FF" d="M392.962,241.702c-23.261,0-66.956-11.553-66.956-25.805s43.694-25.804,66.956-25.804
			s29.97,11.552,29.97,25.804S416.223,241.702,392.962,241.702z"/>
		<path fill="#0642FF" d="M219.037,241.702c23.261,0,66.957-11.553,66.957-25.805s-43.695-25.804-66.957-25.804
			s-29.969,11.552-29.969,25.804S195.777,241.702,219.037,241.702z"/>
	</g>
	<g>
		<path fill="#00B7FF" d="M349.245,295.634c-16.448-16.447-39.176-55.514-29.099-65.591c10.076-10.078,49.144,12.65,65.591,29.099
			c16.448,16.447,13.022,29.36,2.945,39.438S365.693,312.083,349.245,295.634z"/>
		<path fill="#00B7FF" d="M226.262,172.652c16.447,16.447,55.514,39.175,65.592,29.099c10.077-10.077-12.65-49.144-29.099-65.592
			c-16.448-16.447-29.36-13.021-39.438-2.945C213.239,143.291,209.813,156.204,226.262,172.652z"/>
	</g>
	<g>
		<circle fill="#FEC37D" cx="306" cy="215.902" r="30.763"/>
		<path fill="#FEC37D" d="M373.766,693.035H238.235c-5.575,0-10.378-3.93-11.481-9.396l-35.906-177.883h230.306L385.246,683.64
			C384.143,689.105,379.34,693.035,373.766,693.035z"/>
	</g>
	<path fill="#F9AE5D" d="M361.387,505.757L325.481,683.64c-1.104,5.466-5.906,9.396-11.48,9.396h59.766
		c5.574,0,10.377-3.93,11.48-9.396l35.906-177.883H361.387z"/>
	<path fill="#F2A559" d="M438.618,537.448H173.381c-3.383,0-6.125-2.742-6.125-6.124v-31.747c0-3.383,2.742-6.124,6.125-6.124
		h265.236c3.383,0,6.125,2.741,6.125,6.124v31.747C444.743,534.706,442.001,537.448,438.618,537.448z"/>
	<g>
		<path fill="#EA8F3D" d="M438.618,493.453h-54.624v43.995h54.623c3.383,0,6.125-2.742,6.125-6.124v-31.747
			C444.743,496.194,442.001,493.453,438.618,493.453z"/>
		<polygon fill="#EA8F3D" points="339.402,614.673 399.167,614.673 400.71,607.029 402.786,596.743 343.021,596.743 		"/>
	</g>
	<path d="M335.071,433.48c3.372,3.964,8.517,8.913,15.719,12.979c6.916,3.905,16.453,7.333,28.62,7.333
		c10.094,0,21.997-2.359,35.71-8.765c47.442-22.16,72.377-83.311,73.414-85.902c0.017-0.043,0.028-0.087,0.044-0.13
		c0.062-0.159,0.114-0.32,0.165-0.483c0.038-0.122,0.08-0.243,0.114-0.366c0.046-0.172,0.083-0.348,0.12-0.524
		c0.024-0.112,0.052-0.225,0.07-0.338c0.035-0.202,0.057-0.405,0.077-0.61c0.008-0.088,0.022-0.176,0.028-0.263
		c0.018-0.249,0.021-0.5,0.017-0.751c-0.001-0.044,0.003-0.088,0.001-0.134c-0.034-1.186-0.303-2.385-0.838-3.528
		c-0.534-1.144-1.279-2.118-2.168-2.906c-0.036-0.032-0.075-0.06-0.111-0.091c-0.188-0.162-0.379-0.317-0.577-0.461
		c-0.074-0.054-0.153-0.102-0.229-0.153c-0.166-0.112-0.333-0.225-0.507-0.326c-0.104-0.061-0.212-0.114-0.317-0.171
		c-0.153-0.082-0.307-0.164-0.464-0.235c-0.121-0.056-0.245-0.104-0.368-0.154c-0.152-0.062-0.304-0.123-0.459-0.177
		c-0.046-0.015-0.089-0.037-0.136-0.051c-2.653-0.868-65.552-20.993-112.992,1.167c-30.245,14.127-39.744,34.125-42.386,48.414
		c-1.504,8.133-1.009,15.254-0.135,20.385l-12.518,5.848V340.92c12.137-2.479,25.804-11.224,25.804-38.059
		c0-1.021-0.022-2.082-0.062-3.171c0.742,0.799,1.476,1.565,2.197,2.287c9.321,9.322,18.83,14.046,28.27,14.046
		c0.086,0,0.175,0,0.26-0.001c8.362-0.076,16.298-3.811,23.587-11.1c9.183-9.182,21.009-28.163-2.944-52.117
		c-0.722-0.722-1.488-1.456-2.285-2.198c1.089,0.04,2.15,0.062,3.17,0.062c33.876,0,38.935-21.784,38.935-34.769
		s-5.059-34.771-38.935-34.771c-1.021,0-2.081,0.023-3.17,0.062c0.799-0.742,1.564-1.476,2.285-2.198
		c23.954-23.954,12.127-42.934,2.944-52.117c-7.288-7.289-15.224-11.023-23.587-11.101c-9.492-0.05-19.123,4.638-28.53,14.045
		c-0.722,0.722-1.456,1.488-2.198,2.287c0.04-1.089,0.063-2.15,0.063-3.171C340.769,95.058,318.986,90,306,90
		c-12.986,0-34.77,5.058-34.77,38.934c0,1.021,0.022,2.083,0.063,3.171c-0.742-0.798-1.477-1.565-2.198-2.287
		c-9.322-9.322-18.83-14.046-28.27-14.046c-0.086,0-0.175,0-0.259,0.001c-8.364,0.076-16.3,3.812-23.588,11.101
		c-9.182,9.183-21.009,28.163,2.945,52.117c0.723,0.722,1.488,1.456,2.286,2.198c-1.089-0.04-2.15-0.063-3.172-0.063
		c-33.876,0-38.935,21.785-38.935,34.771s5.059,34.77,38.935,34.77c1.021,0,2.081-0.023,3.172-0.063
		c-0.799,0.742-1.565,1.476-2.286,2.198c-23.954,23.954-12.127,42.935-2.945,52.117c7.289,7.289,15.225,11.023,23.588,11.1
		c0.086,0.001,0.173,0.001,0.259,0.001c9.438,0,18.949-4.725,28.27-14.046c0.722-0.722,1.456-1.488,2.198-2.287
		c-0.04,1.089-0.063,2.15-0.063,3.171c0,26.834,13.667,35.58,25.805,38.059v82.166l-12.519-5.847
		c0.875-5.131,1.369-12.252-0.134-20.385c-2.642-14.289-12.141-34.287-42.386-48.414c-47.442-22.16-110.34-2.033-112.993-1.167
		c-0.047,0.016-0.091,0.037-0.137,0.053c-0.151,0.053-0.301,0.112-0.45,0.173c-0.127,0.051-0.254,0.101-0.378,0.158
		c-0.152,0.071-0.301,0.149-0.449,0.229c-0.111,0.06-0.225,0.115-0.334,0.178c-0.166,0.097-0.324,0.205-0.483,0.312
		c-0.084,0.056-0.171,0.109-0.253,0.169c-0.189,0.137-0.37,0.287-0.55,0.44c-0.045,0.038-0.094,0.074-0.139,0.113
		c-0.216,0.192-0.425,0.397-0.623,0.612c-0.005,0.005-0.01,0.009-0.014,0.013c-0.608,0.66-1.127,1.422-1.527,2.278
		c-0.534,1.144-0.804,2.342-0.838,3.529c-0.001,0.044,0.002,0.088,0.001,0.134c-0.004,0.251,0,0.501,0.017,0.75
		c0.006,0.088,0.021,0.176,0.029,0.263c0.02,0.204,0.041,0.408,0.076,0.609c0.019,0.114,0.047,0.226,0.07,0.338
		c0.037,0.176,0.073,0.35,0.121,0.523c0.033,0.123,0.074,0.244,0.113,0.366c0.052,0.163,0.104,0.324,0.165,0.483
		c0.017,0.043,0.027,0.087,0.044,0.13c1.039,2.591,25.972,63.743,73.414,85.903c13.716,6.405,25.615,8.765,35.71,8.765
		c12.164,0,21.705-3.429,28.62-7.333c7.202-4.066,12.346-9.017,15.719-12.98l20.106,9.392v41.615H173.381
		c-8.32,0-15.091,6.77-15.091,15.091v31.746c0,8.32,6.771,15.091,15.091,15.091h16.526l12.326,61.065
		c0.005,0.022,0.01,0.046,0.015,0.069l15.718,77.866c1.94,9.611,10.464,16.586,20.27,16.586h135.53
		c9.805,0,18.327-6.975,20.269-16.586l28.059-139.001h16.526c8.321,0,15.091-6.769,15.091-15.091v-31.746
		c0-8.32-6.77-15.091-15.091-15.091H314.965v-41.614L335.071,433.48z M407.531,428.782c-18.4,8.595-34.298,9.413-47.251,2.438
		c-3.241-1.745-5.914-3.793-8.05-5.754l108.23-50.554C449.766,393.083,431.798,417.449,407.531,428.782z M345.248,400.111
		c2.729-14.76,13.61-26.68,32.343-35.43c24.189-11.298,54.42-9.448,75.243-5.997l-108.208,50.543
		C344.508,406.544,344.631,403.447,345.248,400.111z M234.409,364.683c18.399,8.595,29.231,20.26,32.194,34.671
		c0.741,3.605,0.886,6.971,0.753,9.867l-108.191-50.535C179.991,355.236,210.222,353.385,234.409,364.683z M251.72,431.22
		c-12.954,6.978-28.852,6.158-47.252-2.438c-24.189-11.299-42.171-35.669-52.891-53.852l108.191,50.536
		C257.632,427.427,254.959,429.475,251.72,431.22z M393.641,596.743h-91.559c-4.95,0-8.964,4.014-8.964,8.965
		s4.014,8.965,8.964,8.965h87.939l-13.563,67.193c-0.258,1.276-1.391,2.204-2.692,2.204h-135.53c-1.303,0-2.437-0.927-2.693-2.204
		l-13.563-67.193h16.736c4.95,0,8.965-4.014,8.965-8.965s-4.015-8.965-8.965-8.965H218.36l-10.159-50.33h195.6L393.641,596.743z
		 M435.779,528.483L435.779,528.483H176.221l0,0v-26.067h259.558V528.483z M298.184,236.244c-0.176-0.067-0.353-0.122-0.531-0.178
		c-0.167-0.087-0.333-0.176-0.506-0.253c-4.936-2.198-8.866-6.127-11.064-11.063c-0.077-0.174-0.166-0.34-0.252-0.506
		c-0.057-0.177-0.11-0.355-0.177-0.531c-0.962-2.502-1.45-5.131-1.45-7.817s0.488-5.315,1.45-7.817
		c0.08-0.208,0.146-0.417,0.21-0.626c0.07-0.139,0.155-0.265,0.22-0.409c2.2-4.935,6.129-8.866,11.065-11.063
		c0.175-0.078,0.342-0.167,0.509-0.255c0.176-0.055,0.352-0.109,0.526-0.176c5.005-1.923,10.632-1.923,15.636,0
		c0.172,0.066,0.346,0.117,0.519,0.172c0.17,0.088,0.34,0.179,0.517,0.258c4.937,2.198,8.865,6.128,11.064,11.063
		c0.063,0.144,0.149,0.27,0.221,0.409c0.063,0.21,0.13,0.42,0.21,0.626c0.962,2.502,1.45,5.131,1.45,7.817s-0.488,5.315-1.45,7.817
		c-0.066,0.176-0.122,0.353-0.177,0.53c-0.087,0.166-0.176,0.332-0.252,0.505c-2.2,4.937-6.129,8.866-11.064,11.064
		c-0.173,0.078-0.339,0.166-0.507,0.253c-0.177,0.056-0.354,0.11-0.53,0.178C308.815,238.168,303.185,238.168,298.184,236.244z
		 M382.344,292.241c-3.903,3.904-7.525,5.816-11.073,5.85c-0.031,0-0.063,0-0.094,0c-4.511,0-9.757-2.958-15.592-8.794
		c-9.29-9.29-21.243-27.081-26.449-41.104c3.536-2.532,6.628-5.624,9.16-9.16c14.023,5.205,31.814,17.158,41.105,26.448
		C391.725,277.806,389.491,285.093,382.344,292.241z M413.966,215.896c0,10.108-3.571,16.839-21.005,16.839
		c-13.138,0-34.167-4.127-47.764-10.362c0.352-2.131,0.528-4.294,0.528-6.477c0-2.184-0.177-4.346-0.528-6.479
		c13.597-6.235,34.626-10.362,47.764-10.362C410.395,199.056,413.966,205.789,413.966,215.896z M355.583,142.497
		c5.878-5.877,11.184-8.876,15.688-8.794c3.548,0.032,7.171,1.946,11.073,5.85c7.147,7.147,9.383,14.434-2.943,26.761
		c-9.292,9.29-27.083,21.243-41.105,26.447c-2.532-3.536-5.624-6.626-9.16-9.159C334.339,169.578,346.292,151.787,355.583,142.497z
		 M306,107.93c10.108,0,16.839,3.572,16.839,21.004c0,13.139-4.127,34.168-10.362,47.764c-2.132-0.352-4.294-0.528-6.477-0.528
		c-2.184,0-4.347,0.177-6.478,0.528c-6.235-13.597-10.362-34.626-10.362-47.764C289.16,111.501,295.891,107.93,306,107.93z
		 M229.656,139.553c3.903-3.904,7.525-5.816,11.073-5.85c0.031,0,0.063,0,0.095,0c4.51,0,9.756,2.958,15.592,8.794
		c9.289,9.29,21.244,27.081,26.448,41.104c-3.536,2.531-6.628,5.624-9.159,9.159c-14.023-5.204-31.814-17.157-41.104-26.447
		C220.275,153.986,222.509,146.7,229.656,139.553z M198.033,215.896c0-10.109,3.571-16.841,21.005-16.841
		c13.138,0,34.167,4.127,47.764,10.362c-0.352,2.132-0.528,4.294-0.528,6.479c0,2.183,0.177,4.346,0.528,6.477
		c-13.597,6.235-34.626,10.362-47.764,10.362C201.605,232.737,198.033,226.005,198.033,215.896z M256.416,289.296
		c-5.837,5.836-11.082,8.795-15.592,8.793c-0.031,0-0.063,0-0.095,0c-3.548-0.032-7.171-1.946-11.073-5.85
		c-7.146-7.148-9.382-14.435,2.945-26.761c9.29-9.29,27.081-21.243,41.104-26.447c2.531,3.536,5.624,6.628,9.159,9.16
		C277.66,262.215,265.707,280.004,256.416,289.296z M289.16,302.859c0-13.138,4.128-34.167,10.362-47.764
		c4.262,0.704,8.692,0.704,12.956,0c6.234,13.597,10.361,34.626,10.361,47.764c0,17.433-6.731,21.004-16.839,21.004
		S289.16,320.292,289.16,302.859z"/>
</g>
</svg>
