<?xml version="1.0" encoding="utf-8"?>
<!-- Generator: Adobe Illustrator 16.0.0, SVG Export Plug-In . SVG Version: 6.00 Build 0)  -->
<!DOCTYPE svg PUBLIC "-//W3C//DTD SVG 1.1//EN" "http://www.w3.org/Graphics/SVG/1.1/DTD/svg11.dtd">
<svg version="1.1" id="Layer_3" xmlns="http://www.w3.org/2000/svg" xmlns:xlink="http://www.w3.org/1999/xlink" x="0px" y="0px"
	 width="512px" height="512px" viewBox="0 0 512 512" enable-background="new 0 0 512 512" xml:space="preserve">
<g>
	<g>
		<path fill="#F0BC5E" d="M400.534,181.259h29.229c23.45,0,42.456,19.009,42.456,42.456h-42.456
			c-19.336,0-35.659-12.934-40.778-30.622L400.534,181.259z"/>
		<path fill="#F0BC5E" d="M338.916,230.543c-36.299-3.017-64.813-33.431-64.813-70.508V131.73c39.08,0,70.761,31.684,70.761,70.754
			v24.231L338.916,230.543z"/>
		<path fill="#F0BC5E" d="M102.103,371.288c-18.985-4.233-33.188-21.177-33.188-41.437v-28.306
			c23.449,0,42.453,19.003,42.453,42.456v19.396L102.103,371.288z"/>
		<path fill="#F0BC5E" d="M172.656,322.771h37.768c70.341,0,127.361,57.022,127.361,127.358h-56.604
			c-66.658,0-121.352-51.204-126.897-116.423L172.656,322.771z"/>
		<path fill="#F0BC5E" d="M351.932,25.604c39.083,0,70.758,31.675,70.758,70.754v28.299c-39.08,0-70.758-31.675-70.758-70.751
			V25.604z"/>
	</g>
	<path d="M359.012,244.943H328.99c56.837-34.345,100.773-70.984,100.773-113.213v-14.148V96.357
		c0-42.913-34.915-77.831-77.831-77.831h-7.067v35.379c0,40.526,31.139,73.881,70.751,77.465v0.359
		c0,51.764-85.157,98.34-170,143.333c-1.193-18.857-8.671-37.5-19.858-55.443c8.105-10.689,12.97-23.948,12.97-38.361v-7.074
		c0-46.538-30.904-83.376-89.376-106.521c-42.935-16.994-85.146-20.667-87.51-20.837H40.614V68.05
		c0,119.029,43.977,176.893,134.433,176.893c15.462,0,29.641-5.545,40.686-14.737c9.805,16.525,15.918,33.415,15.918,50.119v2.138
		c-88.223,46.777-176.812,80.741-172,211.282h14.152c-6.47-61.946,32.702-121.138,74.947-148.186
		C159.68,409,215.751,457.205,281.181,457.205h63.684v-7.076c0-74.131-60.311-134.432-134.441-134.432h-10.716
		c14.78-8.124,30.001-16.19,45.124-24.207c12.732-6.743,25.509-13.523,38.096-20.354c9.098,49.564,53.022,87.014,104.387,87.014
		h77.831v-7.077C465.145,292.553,417.532,244.943,359.012,244.943L359.012,244.943z M359.012,53.905V33.068
		c31.795,3.527,56.604,30.565,56.604,63.289v20.834C383.821,113.664,359.012,86.626,359.012,53.905z M175.047,230.789
		c-82.06,0-120.284-51.714-120.284-162.739v-7.083l6.491-0.006c1.626,0.132,163.324,14.74,163.324,113.226v7.074
		c0,9.448-2.713,18.258-7.317,25.78c-8.951-12.304-19.395-24.219-30.505-35.564l2.435-46.446l-14.135-0.738l-1.784,33.966
		c-11.2-10.602-22.664-20.61-33.599-29.85v-32.05h-14.151v20.216c-1.601-1.317-3.179-2.629-4.73-3.909
		c-13.535-11.204-25.225-20.884-32.723-28.374L78.063,94.29c7.968,7.966,19.896,17.839,33.709,29.282
		c0.438,0.359,0.883,0.731,1.324,1.09H75.991v14.151h54.07c10.418,8.798,21.34,18.29,32.002,28.305H97.217v14.147h79.346
		c11.625,11.843,22.441,24.235,31.374,36.939C199.175,225.997,187.67,230.789,175.047,230.789L175.047,230.789z M210.424,329.852
		c63.952,0,116.4,50.159,120.079,113.203h-49.321c-57.644,0-107.167-41.815-118.02-97.271
		c10.399,12.161,24.806,21.577,41.073,30.104l13.77,34.414l13.139-5.249l-7.89-19.73c2.733,1.299,5.45,2.585,8.215,3.887
		c4.919,2.305,9.865,4.66,14.795,7.033l6.828,27.3l13.719-3.424l-3.85-15.415c15.314,8.196,29.762,17.448,41.514,29.203
		l10.002-10.002c-12.776-12.779-28.018-22.631-44.038-31.249l13.898-6.948l-6.333-12.659l-23.223,11.606
		c-5.762-2.814-11.553-5.551-17.311-8.259c-3.792-1.784-7.559-3.55-11.265-5.321l23.228-13.931l-7.282-12.133l-30.933,18.558
		c-17.083-8.928-31.755-18.678-40.714-31.328c1.358-0.797,2.717-1.592,4.09-2.389H210.424z M387.314,344.002
		c-44.366,0-82.298-32.229-90.361-74.953c15.919,12.565,36.191,20.105,57.515,27.968c25.275,9.318,51.427,18.961,70.297,37.834
		l10.005-10.009c-21.07-21.066-48.69-31.249-75.403-41.097c-19.488-7.181-38.005-14.106-52.083-24.657h51.729
		c48.338,0,88.083,37.48,91.708,84.914H387.314z"/>
</g>
</svg>
