<?xml version="1.0" encoding="utf-8"?>
<!-- Generator: Adobe Illustrator 21.1.0, SVG Export Plug-In . SVG Version: 6.00 Build 0)  -->
<svg version="1.1" id="レイヤー_1" xmlns="http://www.w3.org/2000/svg" xmlns:xlink="http://www.w3.org/1999/xlink" x="0px"
	 y="0px" width="15.2px" height="13.9px" viewBox="0 0 15.2 13.9" style="enable-background:new 0 0 15.2 13.9;"
	 xml:space="preserve">
<g>
	<path d="M10.1,7.1C9.4,7.6,8.5,7.9,7.6,7.9S5.8,7.6,5.1,7.1C3.6,8,2.5,9.7,2.5,11.6v1.8c0,0.3,0.3,0.6,0.6,0.6h9.2
		c0.3,0,0.6-0.3,0.6-0.6v-1.8C12.8,9.7,11.7,8,10.1,7.1z"/>
	<path d="M7.6,7C5.7,7,4.1,5.4,4.1,3.5S5.7,0,7.6,0c1.9,0,3.5,1.6,3.5,3.5S9.6,7,7.6,7z"/>
</g>
</svg>
