<?xml version="1.0" encoding="utf-8"?>
<!-- Generator: Adobe Illustrator 22.1.0, SVG Export Plug-In . SVG Version: 6.00 Build 0)  -->
<svg version="1.1" xmlns="http://www.w3.org/2000/svg" xmlns:xlink="http://www.w3.org/1999/xlink" x="0px" y="0px"
	 viewBox="0 0 26 33" style="enable-background:new 0 0 26 33;" xml:space="preserve">
<style type="text/css">
	.st0{fill:#292929;}
</style>
<path class="st0" d="M24.354,7.45h-5.722V6.356c0-3.312-2.07-6.006-4.614-6.006h-1.372c-2.544,0-4.614,2.694-4.614,6.006V7.45H1.646
	l-1.385,25.2h25.477L24.354,7.45z M9.032,6.356c0-2.76,1.622-5.006,3.614-5.006h1.372c1.993,0,3.614,2.246,3.614,5.006V7.45h-8.6
	V6.356z M2.593,8.45h5.439v2.6h1v-2.6h8.6v2.6h1v-2.6h4.776l1.275,23.2H1.318L2.593,8.45z"/>
</svg>
