<?xml version="1.0" encoding="utf-8"?>
<!-- Generator: Adobe Illustrator 21.1.0, SVG Export Plug-In . SVG Version: 6.00 Build 0)  -->
<svg version="1.1" id="レイヤー_1" xmlns="http://www.w3.org/2000/svg" xmlns:xlink="http://www.w3.org/1999/xlink" x="0px"
	 y="0px" width="22px" height="22px" viewBox="0 0 22 22" style="enable-background:new 0 0 22 22;" xml:space="preserve">
<g>
	<g>
		<g>
			<path d="M15.5,22l-9.1,0C2.9,22,0,19.1,0,15.5l0-9.1C0,2.9,2.9,0,6.5,0l9.1,0C19.1,0,22,2.9,22,6.5l0,9.1
				C22,19.1,19.1,22,15.5,22z M6.5,2C4,2,2.1,4,2.1,6.4l0,9.1c0,2.4,2,4.4,4.4,4.4l9.1,0c2.4,0,4.4-2,4.4-4.4l0-9.1
				c0-2.4-2-4.4-4.4-4.4L6.5,2z"/>
			<ellipse transform="matrix(2.718060e-03 -1 1 2.718060e-03 11.6856 22.0291)" cx="16.9" cy="5.2" rx="1.4" ry="1.4"/>
			<path d="M11,16.7c-3.1,0-5.7-2.6-5.7-5.7S7.9,5.3,11,5.3s5.7,2.6,5.7,5.7C16.7,14.1,14.1,16.7,11,16.7z M11,7.4
				C9,7.4,7.4,9,7.4,11c0,2,1.6,3.6,3.6,3.6s3.6-1.6,3.6-3.6C14.6,9,13,7.4,11,7.4z"/>
		</g>
	</g>
</g>
</svg>
