<svg xmlns="http://www.w3.org/2000/svg" viewBox="0 0 199.664 680.407"><defs><style>.cls-1{fill:#464646;}</style></defs><title>main-copy</title><g id="レイヤー_2" data-name="レイヤー 2"><g id="レイヤー_1-2" data-name="レイヤー 1"><path class="cls-1" d="M127.748,31.062V81.083h.891c1.779,0,3.827-1.246,3.916-1.691V29.905q2.268-.4,2.67-1.6l-4.807-1.78A146.611,146.611,0,0,0,140.564,4.45c1.87.089,2.938-.712,3.294-1.691l-8.01-2.67C131.131,17,123.12,33.911,115.466,44.68l1.246.89A96.719,96.719,0,0,0,127.748,31.062Z"/><path class="cls-1" d="M171.094,24.3h24.3c1.246,0,2.225-.445,2.314-1.424-2.671-2.492-7.121-6.052-7.121-6.052l-3.827,4.806H168.513V4.539c2.224-.356,3.025-1.246,3.293-2.492l-8.011-.8V21.628h-26.7l.712,2.67h22.429c-5.073,14.6-14.152,28.748-26.079,38.895l1.157,1.335a86.442,86.442,0,0,0,28.482-35.6V60.345H147.6l.623,2.67h15.575V81.083h1.068c1.6,0,3.65-.979,3.65-1.691V63.015h15.4c1.246,0,1.958-.445,2.225-1.424a80.205,80.205,0,0,0-6.32-5.608l-3.381,4.362h-7.921V24.3h.266c4.807,16.2,14.953,31.329,26.879,39.785a5.3,5.3,0,0,1,3.828-4.094l.178-1.068C187.826,52.246,176.078,38.806,171.094,24.3Z"/><path class="cls-1" d="M128.549,168.835c.179-7.12-1.869-11.659-1.869-15.4a29.369,29.369,0,0,1,1.424-7.566c1.158-3.916,9.079-24.387,12.995-35.334l-1.691-.446c-15.309,34.89-15.309,34.89-16.822,37.827-.712,1.78-1.068,1.869-2.047,1.869h-3.916v1.958a8.378,8.378,0,0,1,4.272,1.246c1.869,1.246,2.492,7.922,1.513,17.089,0,2.76.534,4.45,2.047,4.45C127.036,174.531,128.371,172.4,128.549,168.835Z"/><path class="cls-1" d="M125.435,124.867c5.606,3.115,8.544-8.367-8.723-10.858l-.8.8C119.738,117.035,124.1,121.307,125.435,124.867Z"/><path class="cls-1" d="M122.141,94.873c3.827,2.492,8.633,7.209,10.236,11.125,5.695,3.026,8.633-8.455-9.435-11.926Z"/><path class="cls-1" d="M193.077,163.94l-3.293,4.9h-1.157V143.113c2.226-.178,3.294-.712,4.006-1.691L185.6,136.26l-2.671,3.56H146.617l-5.607-2.492v31.507h-9.7l.712,2.581h65.062c1.157,0,1.958-.444,2.136-1.335A73.29,73.29,0,0,0,193.077,163.94Zm-37.648,4.9h-9.88V142.49h9.88Zm14.062,0h-9.612V142.49h9.612Zm14.508,0H173.853V142.49H184Z"/><path class="cls-1" d="M181.952,132.877c2.136,0,4-1.067,4-1.513V101.548a5.225,5.225,0,0,0,3.383-1.424l-5.875-4.54-2.492,3.027H150.979l-5.608-2.581v37.649h.712c2.314,0,3.827-1.069,3.827-1.513V128.6h31.419v4.272Zm-32.042-31.6h31.419v10.948H149.91Zm0,24.743V114.81h31.419v11.214Z"/><path class="cls-1" d="M135.4,231.681c3.827-3.916,9.7-8.544,14.6-8.544,4.629,0,6.408,2.759,6.765,10.146-10.5,6.675-18.158,13.529-18.158,20.382,0,6.675,5.341,11.57,21.362,11.57a104.055,104.055,0,0,0,19.492-2.314c2.759-.8,3.115-1.869,3.115-3.025,0-1.335-1.157-2.315-4.006-2.315-4.271,0-9.433,2.759-22.251,2.759-8.277,0-14.329-2.047-14.329-7.209,0-5.251,6.32-10.859,14.864-15.932,0,4.806-.446,9.969-.446,11.927,0,2.225,1.336,3.025,2.671,3.025,1.424,0,2.314-1.067,2.314-2.936,0-2.849,0-9.435-.267-14.419a169.163,169.163,0,0,1,25.366-10.324c3.2-.98,3.738-1.246,3.738-2.76,0-2.225-2.225-4.895-4.272-6.319-1.335-1.068-3.115-1.6-5.963-2.314l-1.157,1.6a10.282,10.282,0,0,1,4.272,2.848c1.246,1.424,1.068,2.136-.356,2.937-5.519,2.937-14.686,6.5-21.9,10.414-.889-6.765-4.182-10.592-9.7-10.592-3.559,0-6.942,1.691-9.612,3.026-.623.267-.89-.177-.534-.623a93.513,93.513,0,0,0,8.722-12.638c8.634-1.692,17.445-4.628,21.183-6.5,1.425-.713,2.314-1.425,2.314-2.4,0-1.513-1.691-2.136-3.381-2.136-1.425,0-1.958.713-5.786,2.492a93.7,93.7,0,0,1-11.926,3.917,62.325,62.325,0,0,0,2.759-5.875c.979-2.047,1.78-2.581,1.78-3.827,0-1.958-5.519-3.471-8.011-3.471a18.285,18.285,0,0,0-4.628.712l-.089,1.691a16.866,16.866,0,0,1,4.9,1.068c1.69.623,1.958,1.246,1.6,2.759a37.811,37.811,0,0,1-3.026,8.01,46.471,46.471,0,0,1-7.565.8c-6.586,0-7.832-1.69-11.3-5.518l-1.958,1.068c3.649,6.942,5.073,8.367,12.283,8.367a52.78,52.78,0,0,0,6.23-.445,85.315,85.315,0,0,1-12.283,16.2c-4.182,4.182-7.386,6.408-7.386,8.811a2.7,2.7,0,0,0,2.669,2.937C129.974,238.712,132.377,234.8,135.4,231.681Z"/><path class="cls-1" d="M177.413,348.973c-2.581,0-9.168,2.4-21.539,2.4-14.152,0-18.958-4.361-18.958-9.435,0-8.456,10.058-16.021,16.91-19.937a143.57,143.57,0,0,1,20.738-9.79c3.383-1.246,5.608-1.958,5.608-3.65,0-1.513-1.958-4.806-4.984-6.675a22.254,22.254,0,0,0-5.875-1.6l-.89,1.513c2.048.89,3.917,1.958,4.718,3.471.534,1.157.266,1.87-1.246,2.493-3.561,1.869-12.817,6.5-19.315,10.324-2.581-1.78-4.005-4.45-4.983-7.566a62.826,62.826,0,0,1-1.959-13.618c0-2.047.623-2.758.534-4.271-.089-1.869-4.45-4.45-8.1-4.45a17.824,17.824,0,0,0-5.162.8v1.87a34.61,34.61,0,0,1,4.807.889,2.815,2.815,0,0,1,2.4,2.76c.89,6.408,2.136,13.617,3.738,18.245a17.823,17.823,0,0,0,5.074,7.744c-5.519,3.827-15.843,12.282-15.843,22.073,0,8.9,8.9,13.795,24.3,13.795,12.015,0,19.047-1.246,22.073-2.047,1.691-.445,3.026-1.246,3.026-2.314C182.486,349.685,180.172,348.973,177.413,348.973Z"/><path class="cls-1" d="M192.988,384.3a37.745,37.745,0,0,0-9.7-5.251l-1.157,1.512a43.671,43.671,0,0,1,7.922,6.943c2.047,1.958,2.847,4.272,4.094,4.272a1.968,1.968,0,0,0,2.046-2.225C196.192,387.952,195.214,386.261,192.988,384.3Z"/><path class="cls-1" d="M175.811,384.392l-1.247,1.6a42.746,42.746,0,0,1,7.833,7.387c1.958,2.225,2.759,4.272,4,4.272,1.246.089,2.047-.623,2.047-2.047,0-1.691-.8-3.115-3.115-5.34A34.707,34.707,0,0,0,175.811,384.392Z"/><path class="cls-1" d="M131.575,436.9c0,8.9,8.9,13.8,24.209,13.8,12.106,0,19.048-1.157,22.073-1.958,1.781-.445,3.116-1.246,3.116-2.4,0-2.226-2.4-2.938-5.074-2.938s-9.167,2.315-21.539,2.315c-14.151,0-19.047-4.362-19.047-9.346,0-8.455,10.147-16.02,16.912-19.936a165.684,165.684,0,0,1,20.738-9.88c3.471-1.158,5.606-1.869,5.606-3.561,0-1.513-1.958-4.894-4.983-6.675a21.529,21.529,0,0,0-5.786-1.6l-.89,1.513c1.958.89,3.916,1.87,4.718,3.471.533,1.157.267,1.869-1.336,2.4-3.471,1.958-12.816,6.585-19.313,10.413a13.3,13.3,0,0,1-4.9-7.565,63.15,63.15,0,0,1-2.047-13.618c0-2.136.712-2.759.623-4.272-.089-1.958-4.45-4.451-8.1-4.451a17.934,17.934,0,0,0-5.251.8v1.78c1.335.268,3.381.535,4.9.98a2.8,2.8,0,0,1,2.314,2.67,116.972,116.972,0,0,0,3.738,18.246,18.393,18.393,0,0,0,5.073,7.832C141.811,418.747,131.575,427.2,131.575,436.9Z"/><path class="cls-1" d="M193.077,492.8c0-1.514-2.581-2.226-4-2.226-.712,0-1.691.891-5.162,2.315a33.9,33.9,0,0,1-5.341,1.78c-.177-3.827-.266-7.565-.177-9.7,0-3.026,1.335-4.717,1.335-6.052,0-2.048-5.163-4.361-8.278-4.361a27.415,27.415,0,0,0-6.14,1.157l.177,2.047a35.459,35.459,0,0,1,5.7.534c1.246.356,1.78.89,1.958,2.759.266,2.314.712,9.434.889,14.685a48.412,48.412,0,0,1-9.879,1.247c-4.9,0-8.722-1.6-13.44-4.806l-1.156,1.6c4.539,5.341,9.078,7.388,14.062,7.388a66.208,66.208,0,0,0,10.592-.89c.444,8.722.979,21.094-2.314,28.392-3.472,7.833-8.9,11.749-16.555,15.843l1.067,1.958c8.723-3.293,15.843-7.387,19.849-15.664,4-8.1,3.115-22.341,2.581-31.419a61.991,61.991,0,0,0,11.927-3.916C192.365,494.842,193.077,494.13,193.077,492.8Z"/><path class="cls-1" d="M131.664,538.543c.98,1.424,2.137,2.759,3.738,2.759a1.984,1.984,0,0,0,2.137-2.047c0-2.848-1.246-3.65-1.246-6.142a24.971,24.971,0,0,1,1.067-5.874c.8-2.759,4.273-12.1,6.41-18.246l-2.048-.889c-2.493,6.141-6.586,16.288-7.921,18.6-.712,1.424-1.246,1.424-1.958,0-1.069-2.047-2.048-5.251-2.048-10.681,0-7.654,3.2-16.377,5.7-21.983,1.157-2.671,2.492-5.163,2.492-7.031,0-3.739-3.916-7.833-5.606-9.168a31.851,31.851,0,0,0-4.184-2.581l-1.335,1.335c3.382,3.649,5.34,6.23,5.34,9.345,0,5.429-5.874,19.493-5.874,30.44C126.324,528.129,129.262,534.627,131.664,538.543Z"/><path class="cls-1" d="M184.355,616.949c.356-11.838-9.345-19.4-20.649-19.4a41.088,41.088,0,0,0-15.042,3.2c-.712.267-.978-.356-.444-.891,4.093-4.539,15.842-16.109,19.936-19.847,3.2-2.849,4.9-2.76,4.9-4.273,0-2.136-4.362-5.429-6.676-5.429-1.067,0-1.424.89-3.026,1.246-3.828,1.157-15.22,4.094-18.691,4.094-2.314,0-3.2-2.67-4.272-5.073l-1.692.267a10.514,10.514,0,0,0,.09,4.717c.8,2.4,3.827,5.7,6.853,5.7,1.246,0,2.492-1.246,4.183-1.869,3.827-1.424,11.749-4.1,14.419-4.628.979-.179,1.424.089.8,1.156-3.471,5.875-18.78,20.561-33.466,35.869-1.78,1.869-2.492,2.938-2.581,4.273-.089,2.046,1.068,3.2,2.047,3.2,1.246,0,1.869-.357,2.938-1.869,7.387-9.346,16.288-17,29.015-17,10.77,0,16.733,7.921,16.466,15.576-.178,6.942-4.9,13.083-13.885,15.486-1.246-8.544-7.654-12.639-13.973-12.639-5.519,0-9.524,3.561-9.524,8.011,0,5.963,6.5,9.879,16.2,9.879C174.564,636.708,184.177,627.719,184.355,616.949Zm-26.879,15.4c-8.723,0-12.461-2.849-12.461-5.786s2.4-4.717,5.429-4.717c5.074,0,9.435,3.382,10.592,10.413C159.879,632.348,158.722,632.348,157.476,632.348Z"/><path class="cls-1" d="M175.276,654.685l-1.067,1.423c7.743,5.341,11.57,10.5,14.418,16.377,1.157,2.67,2.226,3.739,4.006,3.739s3.115-1.246,3.115-3.65c0-1.958-.623-3.559-2.137-5.874C190.764,662.606,185.423,658.156,175.276,654.685Z"/><path class="cls-1" d="M26.345,35.69a54.466,54.466,0,0,0,13-15.13h9.078A74.455,74.455,0,0,1,25.989,59.455l.979,1.157C40.5,50.91,49.486,36.759,53.937,20.56h7.476C58.476,42.01,50.021,61.413,33.732,75.654L34.8,76.811C53.937,63.282,63.1,43.7,67.021,20.56h6.852c-1.335,27.324-4.271,48.952-8.455,52.6-1.246,1.156-2.047,1.423-4.094,1.423s-9.434-.8-13.707-1.335l-.089,1.781c3.649.533,8.1,1.512,9.435,2.314a4.29,4.29,0,0,1,1.69,3.738A13.078,13.078,0,0,0,69.067,76.9c4.806-5.34,8.1-27.147,9.346-55.9,1.868-.178,3.025-.534,3.649-1.246l-6.231-5.252-2.848,3.472H40.853A78.3,78.3,0,0,0,46.638,4.094c1.958.089,3.026-.712,3.383-1.78L42.01,0C38.806,14.241,32.4,26.79,25.1,34.711Z"/><path class="cls-1" d="M8.455,21.717h7.388V43.968C9.078,46.282,3.471,48.151.267,48.952l3.2,6.5a3.078,3.078,0,0,0,1.78-2.225c3.827-1.781,7.3-3.472,10.592-5.074V81.083h.978c1.781,0,3.739-1.157,3.739-1.958V45.837c5.251-2.581,9.791-4.9,13.528-6.764l-.533-1.335c-4.451,1.6-8.9,3.115-12.995,4.628V21.717H31.774c1.247,0,2.047-.445,2.314-1.335-2.67-2.581-6.942-6.052-6.942-6.052l-3.738,4.806H20.56V3.293c2.225-.356,2.937-1.246,3.2-2.4L15.843,0V19.136H9.256c.979-3.383,1.78-6.854,2.492-10.325,1.78-.089,2.67-.89,2.938-2.047L7.12,5.251C6.142,16.376,3.471,27.769.089,35.78l1.424.8A62.176,62.176,0,0,0,8.455,21.717Z"/><path class="cls-1" d="M27.68,135.905c1.246,0,2.048-.444,2.225-1.424-2.314-2.225-5.964-5.251-5.964-5.251l-3.381,4.005H3.382l.712,2.67Z"/><path class="cls-1" d="M76.188,128.518,72.806,133.5H70.58V118.016a7.669,7.669,0,0,0,3.827-1.78l-6.319-4.9-3.026,3.027H52.423c.8-4.273,1.514-8.456,2.137-11.927H76.454c1.246,0,2.137-.445,2.315-1.335-2.759-2.581-6.943-5.786-6.943-5.786L68,99.859H35.334l.713,2.581H50.021c-.624,3.471-1.335,7.654-2.137,11.927H36.848l.8,2.67h9.7c-1.157,5.874-2.4,11.838-3.471,16.465H32.309l.712,2.671h47.26c1.246,0,1.959-.445,2.226-1.424A87.471,87.471,0,0,0,76.188,128.518ZM65.952,133.5H48.418c1.068-4.539,2.314-10.5,3.472-16.465H65.952Z"/><path class="cls-1" d="M3.382,121.932l.712,2.67H27.68c1.246,0,2.048-.445,2.225-1.424-2.314-2.314-5.964-5.251-5.964-5.251l-3.381,4Z"/><path class="cls-1" d="M8.188,172.932V167.5H22.874v4.539h.712c1.513,0,3.827-1.246,3.916-1.779V148.188a7.3,7.3,0,0,0,3.827-1.78l-6.408-4.984-2.938,3.2H8.633l-5.073-2.4v32.308h.712C6.319,174.533,8.188,173.466,8.188,172.932Zm0-25.723H22.874v17.623H8.188Z"/><path class="cls-1" d="M69.156,144.628H44.235l-5.073-2.4v32.219h.712c1.958,0,4-1.067,4-1.6v-4.9H69.957v6.142h.712c1.6,0,4.006-1.335,4.095-1.869V148.188a7.673,7.673,0,0,0,3.827-1.78L72,141.424Zm.8,20.649H43.879V147.209H69.957Z"/><path class="cls-1" d="M34.178,111.875c-2.581-2.493-6.765-5.7-6.765-5.7l-3.649,4.539H0L.623,113.3h31.24C33.109,113.3,33.91,112.854,34.178,111.875Z"/><path class="cls-1" d="M19.047,99.592H3.026l.712,2.492h23.23c1.246,0,2.047-.445,2.314-1.335-2.581-2.492-6.676-5.607-6.676-5.607Z"/><path class="cls-1" d="M28.036,192.964l-.089,1.691a16.866,16.866,0,0,1,4.9,1.068c1.69.623,1.958,1.246,1.6,2.759a37.811,37.811,0,0,1-3.026,8.01,46.471,46.471,0,0,1-7.565.8c-6.586,0-7.832-1.69-11.3-5.518l-1.958,1.068c3.649,6.942,5.073,8.367,12.283,8.367a52.78,52.78,0,0,0,6.23-.445,85.315,85.315,0,0,1-12.283,16.2c-4.182,4.182-7.386,6.408-7.386,8.811a2.7,2.7,0,0,0,2.669,2.937c1.87,0,4.273-3.916,7.3-7.031,3.827-3.916,9.7-8.544,14.6-8.544,4.629,0,6.408,2.759,6.765,10.146-10.5,6.675-18.158,13.529-18.158,20.382,0,6.675,5.341,11.57,21.362,11.57a104.055,104.055,0,0,0,19.492-2.314c2.759-.8,3.115-1.869,3.115-3.025,0-1.335-1.157-2.315-4.006-2.315-4.271,0-9.433,2.759-22.251,2.759-8.277,0-14.329-2.047-14.329-7.209,0-5.251,6.32-10.859,14.864-15.932,0,4.806-.446,9.969-.446,11.927,0,2.225,1.336,3.025,2.671,3.025,1.424,0,2.314-1.067,2.314-2.936,0-2.849,0-9.435-.267-14.419a169.163,169.163,0,0,1,25.366-10.324c3.2-.98,3.738-1.246,3.738-2.76,0-2.225-2.225-4.895-4.272-6.319-1.335-1.068-3.115-1.6-5.963-2.314l-1.157,1.6a10.282,10.282,0,0,1,4.272,2.848c1.246,1.424,1.068,2.136-.356,2.937-5.519,2.937-14.686,6.5-21.9,10.414-.889-6.765-4.182-10.592-9.7-10.592-3.559,0-6.942,1.691-9.612,3.026-.623.267-.89-.177-.534-.623a93.513,93.513,0,0,0,8.722-12.638c8.634-1.692,17.445-4.628,21.183-6.5,1.425-.713,2.314-1.425,2.314-2.4,0-1.513-1.691-2.136-3.381-2.136-1.425,0-1.958.713-5.786,2.492a93.7,93.7,0,0,1-11.926,3.917A62.325,62.325,0,0,0,38.9,199.55c.979-2.047,1.78-2.581,1.78-3.827,0-1.958-5.519-3.471-8.011-3.471A18.285,18.285,0,0,0,28.036,192.964Z"/><path class="cls-1" d="M63.905,313.1l1.068,1.691a30.144,30.144,0,0,1,6.5-2.76c2.847-.533,3.382,1.6,5.428,1.069,1.335-.178,1.781-1.513,1.781-3.027-.357-5.34-6.586-10.947-13-12.282-3.649-.8-6.943-.623-11.482.267l.268,2.225c6.14-.445,12.816,0,16.466,5.073.978,1.335.978,2.047,0,3.027A53.872,53.872,0,0,1,63.905,313.1Z"/><path class="cls-1" d="M23.408,352.175c2.848,2.581,3.026,5.073,4.895,5.073,2.4,0,4.629-3.738,4.629-7.477,0-3.115-.98-6.5-1.246-18.157,7.031-3.916,15.4-7.565,22.7-7.565,9.345,0,13.617,4.984,13.617,11.571,0,6.853-4.628,12.371-13.617,12.371A21.618,21.618,0,0,1,40.5,342.829l-1.425,1.424a20.268,20.268,0,0,0,16.377,8.1c10.77,0,17.446-7.032,17.446-15.843,0-9.435-7.032-15.576-16.734-15.576-8.811,0-17.178,3.115-24.564,6.853v-3.916c0-4.183.089-8.544.266-12.461a94.792,94.792,0,0,0,12.994-4.894c1.781-.8,2.671-1.781,2.671-3.116,0-1.6-1.691-2.047-3.293-2.047-2.047.089-5.073,3.115-12.1,5.7a53.315,53.315,0,0,1,.979-8.9c.623-2.758,1.87-4.093,1.87-6.14,0-1.958-5.341-4.718-8.367-4.718a13.854,13.854,0,0,0-5.785,1.425l.267,1.779a18.974,18.974,0,0,1,5.34.445c1.336.357,1.691.712,1.691,2.582.089,2.046,0,8.01,0,14.774a46.322,46.322,0,0,1-9.167,1.514c-4.629.177-5.786-.712-10.325-5.163l-1.6,1.158c3.827,7.743,7.387,8.277,11.393,8.277a52.432,52.432,0,0,0,9.7-1.6v17.266c-5.785,3.383-12.728,8.723-15.932,10.681a5.737,5.737,0,0,1-4.984.979c-1.869-.178-2.313.445-2.313,2.136a4.266,4.266,0,0,0,1.423,3.293A4.265,4.265,0,0,0,8.9,348.169c1.068,0,2.225-.533,4.895-2.937C17.178,347.457,21.628,350.661,23.408,352.175Zm4.717-18.513v13.884c0,1.6-.623,2.314-2.4,1.425-2.937-1.335-7.032-3.472-10.236-5.252A102.645,102.645,0,0,1,28.125,333.662Z"/><path class="cls-1" d="M23.675,411.716a7.082,7.082,0,0,0-2.225,4.45c0,1.958,1.156,3.738,3.471,5.7,10.592,8.99,16.911,15.042,21.094,21.539a54.1,54.1,0,0,1,4.094,7.477,3.2,3.2,0,0,0,2.67,1.958c1.781,0,2.849-1.157,2.849-3.293,0-2.492-2.048-6.053-4.273-8.989-6.23-8.011-13.439-13.53-22.518-21-2.047-1.514-3.026-2.582-3.026-3.827,0-.891.534-1.781,3.115-4.54,3.56-3.649,15.309-14.6,21.183-19.4,2.848-2.314,4.094-3.026,4.094-4.539,0-2.048-3.026-5.341-5.785-6.942a21.988,21.988,0,0,0-4.984-1.78l-1.068,1.6c3.738,2.581,4.806,4.184,4.806,5.519,0,1.068-.534,1.869-2.047,3.649C40.941,394.271,28.036,406.643,23.675,411.716Z"/><path class="cls-1" d="M48.24,506.234c9.969,0,17.267,5.7,17.267,13.885,0,13.528-14.863,20.382-37.115,21.806l.178,2.137c31.241.8,42.367-10.859,42.367-21.807,0-12.016-9.613-18.779-22.251-18.779a41.84,41.84,0,0,0-18.514,4.805c-.89.446-1.068.178-.356-.534,3.828-4,17.445-17.89,22.074-22.073,1.6-1.6,4.539-2.136,4.539-4,0-2.047-4.539-6.052-7.3-6.052-1.068,0-1.6,1.245-3.382,1.691-3.293.89-16.02,4.094-19.492,4.094-2.225,0-3.293-2.671-4.45-5.162l-1.424.356a12.9,12.9,0,0,0,0,4.895c.623,2.314,4,5.608,6.586,5.608,1.424,0,2.492-1.069,4.272-1.781a147.929,147.929,0,0,1,16.2-4.984c2.225-.534,2.047.356.979,1.869C44.591,486.92,25.544,507.836,17,515.135c-3.648,3.115-7.12,5.429-7.12,7.921,0,1.869,1.068,3.828,2.581,3.828,1.246,0,1.869-.8,3.115-2.137C24.476,514.868,36.225,506.234,48.24,506.234Z"/><path class="cls-1" d="M48.329,587.847c-9.346,0-21.094,7.12-24.565,7.12-2.047,0-3.471-1.779-4.985-5.429l-1.69.445c-.09,2.492-.179,3.828.623,5.7.978,2.135,4.094,5.34,6.852,5.34,1.959,0,3.472-1.6,5.341-2.848,3.382-2.048,12.016-7.388,17.89-7.388,5.518,0,9.791,5.073,9.791,14.508,0,17.267-11.66,27.413-32.932,32.486l.712,2.136c22.785-3.827,37.826-14.6,37.826-33.732C63.192,594.878,57.229,587.847,48.329,587.847Z"/><path class="cls-1" d="M32.309,580.727c4.271-1.692,11.3-4.807,15.486-5.963a23.126,23.126,0,0,1,6.053-.98c1.69-.089,2.67-.534,2.67-1.691,0-2.047-3.382-3.2-6.231-3.2-1.513,0-4.539.623-6.765.623A28.089,28.089,0,0,1,26.79,564.35l-1.068,1.423c5.7,6.409,13.084,7.122,15.754,7.566-2.493,1.691-6.32,3.738-10.058,5.785Z"/><path class="cls-1" d="M68.979,656.02a12.194,12.194,0,1,0,12.1,12.194A12.232,12.232,0,0,0,68.979,656.02Zm0,21.627a9.39,9.39,0,1,1,0-18.779,9.39,9.39,0,0,1,0,18.779Z"/></g></g></svg>