<?xml version="1.0" encoding="utf-8"?>
<!-- Generator: Adobe Illustrator 21.0.0, SVG Export Plug-In . SVG Version: 6.00 Build 0)  -->
<svg version="1.1" id="レイヤー_1" xmlns="http://www.w3.org/2000/svg" xmlns:xlink="http://www.w3.org/1999/xlink" x="0px"
	 y="0px" width="65.4px" height="35.6px" viewBox="0 0 65.4 35.6" style="enable-background:new 0 0 65.4 35.6;"
	 xml:space="preserve">
<style type="text/css">
	.st0{fill:none;stroke:#000000;stroke-width:0.5;stroke-linecap:round;stroke-linejoin:round;stroke-miterlimit:10;}
	.st1{fill:none;stroke:#000000;stroke-width:0.4951;stroke-linecap:round;stroke-linejoin:round;stroke-miterlimit:10;}
	.st2{fill:none;stroke:#000000;stroke-width:0.297;stroke-linecap:round;stroke-linejoin:round;stroke-miterlimit:10;}
	.st3{fill:none;stroke:#000000;stroke-width:0.6963;stroke-linecap:round;stroke-linejoin:round;stroke-miterlimit:10;}
	.st4{fill:none;stroke:#000000;stroke-width:0.4178;stroke-linecap:round;stroke-linejoin:round;stroke-miterlimit:10;}
	.st5{fill:none;stroke:#000000;stroke-width:0.631;stroke-linecap:round;stroke-linejoin:round;stroke-miterlimit:10;}
	.st6{fill:none;stroke:#000000;stroke-width:0.3786;stroke-linecap:round;stroke-linejoin:round;stroke-miterlimit:10;}
	.st7{fill:none;stroke:#000000;stroke-width:0.469;stroke-linecap:round;stroke-linejoin:round;stroke-miterlimit:10;}
	.st8{fill:none;stroke:#000000;stroke-width:0.2814;stroke-linecap:round;stroke-linejoin:round;stroke-miterlimit:10;}
	.st9{fill:none;stroke:#000000;stroke-width:0.3782;stroke-linecap:round;stroke-linejoin:round;stroke-miterlimit:10;}
	.st10{fill:none;stroke:#000000;stroke-width:0.2269;stroke-linecap:round;stroke-linejoin:round;stroke-miterlimit:10;}
	.st11{fill:none;stroke:#000000;stroke-width:0.3609;stroke-linecap:round;stroke-linejoin:round;stroke-miterlimit:10;}
	.st12{fill:none;stroke:#000000;stroke-width:0.2165;stroke-linecap:round;stroke-linejoin:round;stroke-miterlimit:10;}
	.st13{fill:none;stroke:#000000;stroke-width:0.5413;stroke-linecap:round;stroke-linejoin:round;stroke-miterlimit:10;}
	.st14{fill:none;stroke:#000000;stroke-width:0.3248;stroke-linecap:round;stroke-linejoin:round;stroke-miterlimit:10;}
	.st15{fill:none;stroke:#000000;stroke-width:0.5441;stroke-linecap:round;stroke-linejoin:round;stroke-miterlimit:10;}
	.st16{fill:none;stroke:#000000;stroke-width:0.3264;stroke-linecap:round;stroke-linejoin:round;stroke-miterlimit:10;}
</style>
<g>
	<path class="st0" d="M55.3,32c0,0-1.2-3.6-3.6-4.1S49.4,27,47.4,27s-3.8-1.1-5.8,0.7c-2,1.8-6,4.5-8.7,5c-0.8,0.2-2.6-0.6-3.8-0.4
		c-2.8,0.5-6.2,2.9-8.2,2.1c-2.1-0.7-3.8-2.3-6.3-2.9"/>
	<path class="st0" d="M65.1,29.9c0,0-1.2-2.1-2.5-3.9c-1.2-1.8-1.8-3.2-3-3.7c-1.2-0.5-3.7,0.4-6.2,0.2c-2.5-0.2-2.1-0.7-4.8-0.7
		s-3.3-1-4.2,0.3c-0.9,1.2-3.7,1.4-4.3,1.6s-2.2,0.4-2.3,0.4c-1.3,1.6-0.7,2.3-2.8,4.1c-2.3,1.9-5.4,1.4-7.9,1.8
		c-1.5,0.2-3.3,2.2-5,2.7c-1.2,0.3-2.7-0.3-4.6-1.4"/>
	<path class="st1" d="M48.5,21.7c0.9-0.5,1.6-1.2,0.9-2.3c-0.4-0.7,0.2-0.9-0.1-1.6c-0.3-0.8-1.5-1.6-1.5-1.6"/>
	<path class="st0" d="M41.4,23.1c1.2-1.2,3.9-2.9,4.1-3.7c0.2-0.7-0.7-1.9-0.8-2.4"/>
	<path class="st0" d="M54.2,24.4c0.5,0.4,2.4,0.7,3.4,0.8c1.1,0.1,1.5,0.8,1.9,1.2c0.4,0.4,1.7,2,1.7,2"/>
	<path class="st0" d="M44.1,25.7c1.1,0,1,0.1,3.1,0.1c2.1,0,2-0.4,3.2,0.2c1.2,0.6,4.5,1.3,4.8,1.8"/>
	<path d="M39.8,25.1c-0.5,0.3-0.7,0.7-0.9,1c-0.3,0.6-0.6,1.1-1.6,1.5c-1.7,0.7-1.9,2.4-4.1,2.2c-2.1-0.1-3.9,0.6-1.4,0.5
		c2.5-0.1,3.7-0.4,4.7-1.1s5.1-4,5.1-4L39.8,25.1z"/>
	<path d="M63.7,30.8c-0.1-0.6-0.5-1.7-1.2-2.5c-0.7-0.8-1.1-2.8-1-3.6c0.1-0.8,2.2,2.4,2.5,3.4c0.4,1.1,1.4,2.4,1.3,3
		C65.3,31.8,63.7,30.8,63.7,30.8z"/>
	<path d="M54.5,27.6c0.2,0.6,0.4,1.8,1.3,2.4c2.2,1.6,1.1,1.6,1,2.4c-0.1,0.8-2.1-1.1-2.5-2.2c-0.4-1-1.6-2.3-1.5-2.9
		S54.5,27.6,54.5,27.6z"/>
	<path class="st0" d="M56.1,26.7c1,1.2,1.7,2.3,1.7,2.9"/>
	<path class="st2" d="M42.7,24.2c1.5-0.3,1.8-0.7,2.7-0.4s3.8,0.6,3.8,0.6"/>
	<path class="st2" d="M27.5,31.4c0.8,0,2,0,3,0c1.1,0,1.7-0.2,1.7-0.2"/>
	<line class="st2" x1="25.9" y1="32.2" x2="28" y2="32"/>
	<path class="st2" d="M47.8,18.7c0.1,0.4,0.5,1.2,0.3,1.7s-0.3,0.4-0.3,0.4"/>
	<path class="st2" d="M46.7,17.7c0.1,0.5,1.1,1.7,0.8,2"/>
	<path class="st2" d="M47.9,23.4c0.9,0.3,1.9,0.2,1.9,0.2"/>
	<g>
		<line class="st3" x1="32.1" y1="13" x2="32.1" y2="0"/>
		<g>
			<line class="st3" x1="32.1" y1="13" x2="26.3" y2="2.4"/>
			<line class="st3" x1="28.9" y1="1.2" x2="32.1" y2="13"/>
			<line class="st3" x1="23.7" y1="4.4" x2="32.1" y2="13"/>
			<line class="st3" x1="21.5" y1="6.5" x2="32.1" y2="13"/>
			<line class="st3" x1="22.6" y1="5.4" x2="31.6" y2="12.5"/>
			<line class="st3" x1="32" y1="12.9" x2="24.9" y2="3.5"/>
			<line class="st4" x1="29.9" y1="7.3" x2="27.7" y2="1.7"/>
			<line class="st4" x1="31.1" y1="5.6" x2="30.5" y2="0.5"/>
		</g>
		<g>
			<line class="st3" x1="32.1" y1="13" x2="37.9" y2="2.4"/>
			<line class="st3" x1="35.3" y1="1.2" x2="32.1" y2="13"/>
			<line class="st3" x1="40.6" y1="4.4" x2="32.1" y2="13"/>
			<line class="st3" x1="42.7" y1="6.5" x2="32.1" y2="13"/>
			<line class="st4" x1="43.2" y1="7.7" x2="37.8" y2="10.4"/>
			<line class="st3" x1="41.6" y1="5.4" x2="32.6" y2="12.5"/>
			<line class="st3" x1="32.2" y1="12.9" x2="39.3" y2="3.5"/>
			<line class="st4" x1="34.3" y1="7.3" x2="36.5" y2="1.7"/>
			<line class="st4" x1="33.1" y1="5.6" x2="33.7" y2="0.5"/>
		</g>
	</g>
	<g>
		<line class="st5" x1="24.8" y1="22.7" x2="25.9" y2="11"/>
		<g>
			<line class="st5" x1="24.8" y1="22.8" x2="20.5" y2="12.7"/>
			<line class="st5" x1="22.9" y1="11.8" x2="24.8" y2="22.8"/>
			<line class="st5" x1="17.9" y1="14.3" x2="24.8" y2="22.8"/>
			<line class="st5" x1="15.8" y1="16" x2="24.8" y2="22.8"/>
			<line class="st5" x1="24.8" y1="22.8" x2="14.4" y2="18.1"/>
			<line class="st6" x1="15.2" y1="17" x2="19.9" y2="20"/>
			<line class="st5" x1="16.8" y1="15.1" x2="24.3" y2="22.3"/>
			<line class="st5" x1="24.7" y1="22.7" x2="19.1" y2="13.6"/>
			<line class="st6" x1="23.2" y1="17.4" x2="21.7" y2="12.1"/>
			<line class="st6" x1="24.5" y1="16" x2="24.4" y2="11.3"/>
		</g>
		<g>
			<line class="st5" x1="24.7" y1="22.7" x2="30.9" y2="13.7"/>
			<line class="st5" x1="28.7" y1="12.3" x2="24.7" y2="22.7"/>
			<line class="st5" x1="33.1" y1="15.7" x2="24.7" y2="22.7"/>
			<line class="st5" x1="34.9" y1="17.8" x2="24.7" y2="22.7"/>
			<line class="st5" x1="34" y1="16.7" x2="25.2" y2="22.4"/>
			<line class="st5" x1="24.8" y1="22.7" x2="32" y2="14.8"/>
			<line class="st6" x1="27.3" y1="17.8" x2="29.7" y2="12.9"/>
			<line class="st6" x1="26.3" y1="16.2" x2="27.3" y2="11.6"/>
		</g>
	</g>
	<g>
		<line class="st7" x1="18.9" y1="32.5" x2="18.9" y2="23.7"/>
		<g>
			<line class="st7" x1="18.9" y1="32.5" x2="15" y2="25.3"/>
			<line class="st7" x1="16.7" y1="24.5" x2="18.9" y2="32.5"/>
			<line class="st7" x1="13.2" y1="26.7" x2="18.9" y2="32.5"/>
			<line class="st7" x1="11.8" y1="28.1" x2="18.9" y2="32.5"/>
			<line class="st7" x1="18.9" y1="32.5" x2="10.9" y2="29.8"/>
			<line class="st8" x1="11.4" y1="28.9" x2="15.1" y2="30.7"/>
			<line class="st8" x1="11" y1="30.6" x2="18.9" y2="32.5"/>
			<line class="st7" x1="12.5" y1="27.3" x2="18.5" y2="32.1"/>
			<line class="st7" x1="18.8" y1="32.4" x2="14.1" y2="26.1"/>
			<line class="st8" x1="17.4" y1="28.6" x2="15.9" y2="24.8"/>
			<line class="st8" x1="18.2" y1="27.5" x2="17.8" y2="24"/>
		</g>
		<g>
			<line class="st7" x1="18.9" y1="32.5" x2="22.8" y2="25.3"/>
			<line class="st7" x1="21.1" y1="24.5" x2="18.9" y2="32.5"/>
			<line class="st7" x1="24.6" y1="26.7" x2="18.9" y2="32.5"/>
			<line class="st7" x1="26" y1="28.1" x2="18.9" y2="32.5"/>
			<line class="st8" x1="26.4" y1="28.9" x2="22.7" y2="30.7"/>
			<line class="st7" x1="25.3" y1="27.3" x2="19.2" y2="32.1"/>
			<line class="st7" x1="18.9" y1="32.4" x2="23.7" y2="26.1"/>
			<line class="st8" x1="20.4" y1="28.6" x2="21.9" y2="24.8"/>
			<line class="st8" x1="19.5" y1="27.5" x2="19.9" y2="24"/>
		</g>
	</g>
	<g>
		<line class="st9" x1="39.2" y1="18.8" x2="39.2" y2="11.8"/>
		<g>
			<line class="st9" x1="39.2" y1="18.8" x2="36.1" y2="13.1"/>
			<line class="st9" x1="37.4" y1="12.4" x2="39.2" y2="18.8"/>
			<line class="st9" x1="34.6" y1="14.1" x2="39.2" y2="18.8"/>
			<line class="st9" x1="33.4" y1="15.3" x2="39.2" y2="18.8"/>
			<line class="st9" x1="34" y1="14.7" x2="38.9" y2="18.6"/>
			<line class="st9" x1="39.1" y1="18.8" x2="35.3" y2="13.7"/>
			<line class="st10" x1="38.7" y1="14.8" x2="38.3" y2="12"/>
		</g>
		<g>
			<line class="st9" x1="39.2" y1="18.8" x2="42.3" y2="13.1"/>
			<line class="st9" x1="40.9" y1="12.4" x2="39.2" y2="18.8"/>
			<line class="st9" x1="43.8" y1="14.1" x2="39.2" y2="18.8"/>
			<line class="st9" x1="44.9" y1="15.3" x2="39.2" y2="18.8"/>
			<line class="st9" x1="44.4" y1="14.7" x2="39.5" y2="18.6"/>
			<line class="st9" x1="39.2" y1="18.8" x2="43.1" y2="13.7"/>
			<line class="st10" x1="39.7" y1="14.8" x2="40" y2="12"/>
		</g>
	</g>
	<g>
		<line class="st11" x1="9.3" y1="35.5" x2="8.4" y2="28.8"/>
		<g>
			<line class="st11" x1="9.3" y1="35.5" x2="5.6" y2="30.4"/>
			<line class="st11" x1="6.8" y1="29.6" x2="9.3" y2="35.5"/>
			<line class="st11" x1="4.3" y1="31.6" x2="9.3" y2="35.5"/>
			<line class="st11" x1="3.4" y1="32.9" x2="9.3" y2="35.5"/>
			<line class="st11" x1="3.9" y1="32.2" x2="9" y2="35.3"/>
			<line class="st11" x1="9.2" y1="35.4" x2="4.9" y2="31.1"/>
			<line class="st12" x1="8.3" y1="31.7" x2="7.6" y2="29.1"/>
		</g>
		<g>
			<line class="st11" x1="9.3" y1="35.5" x2="11.5" y2="29.6"/>
			<line class="st11" x1="10.1" y1="29.2" x2="9.3" y2="35.5"/>
			<line class="st11" x1="13" y1="30.5" x2="9.3" y2="35.5"/>
			<line class="st11" x1="14.3" y1="31.4" x2="9.3" y2="35.5"/>
			<line class="st11" x1="13.6" y1="30.9" x2="9.5" y2="35.2"/>
			<line class="st11" x1="9.3" y1="35.4" x2="12.3" y2="30.1"/>
			<line class="st12" x1="9.2" y1="31.6" x2="9.2" y2="28.9"/>
		</g>
	</g>
	<g>
		<line class="st13" x1="9.5" y1="29.3" x2="9.5" y2="19.2"/>
		<g>
			<line class="st13" x1="9.5" y1="29.3" x2="5" y2="21.1"/>
			<line class="st13" x1="7" y1="20.1" x2="9.5" y2="29.3"/>
			<line class="st13" x1="2.9" y1="22.6" x2="9.5" y2="29.3"/>
			<line class="st13" x1="1.2" y1="24.2" x2="9.5" y2="29.3"/>
			<line class="st13" x1="9.5" y1="29.3" x2="0.3" y2="26.2"/>
			<line class="st14" x1="0.8" y1="25.2" x2="5.1" y2="27.3"/>
			<line class="st14" x1="0.4" y1="27.2" x2="9.5" y2="29.3"/>
			<line class="st13" x1="2.1" y1="23.4" x2="9.1" y2="28.9"/>
			<line class="st13" x1="9.4" y1="29.3" x2="3.9" y2="21.9"/>
			<line class="st14" x1="7.7" y1="24.9" x2="6" y2="20.5"/>
			<line class="st14" x1="8.7" y1="23.5" x2="8.2" y2="19.6"/>
		</g>
		<g>
			<line class="st13" x1="9.4" y1="29.3" x2="13.9" y2="21.1"/>
			<line class="st13" x1="12" y1="20.1" x2="9.4" y2="29.3"/>
			<line class="st13" x1="16" y1="22.6" x2="9.4" y2="29.3"/>
			<line class="st13" x1="17.7" y1="24.2" x2="9.4" y2="29.3"/>
			<line class="st13" x1="16.9" y1="23.4" x2="9.9" y2="28.9"/>
			<line class="st13" x1="9.5" y1="29.3" x2="15" y2="21.9"/>
			<line class="st14" x1="11.2" y1="24.9" x2="12.9" y2="20.5"/>
			<line class="st14" x1="10.2" y1="23.5" x2="10.7" y2="19.6"/>
		</g>
	</g>
	<g>
		<line class="st15" x1="48.3" y1="16.3" x2="50" y2="6.3"/>
		<g>
			<line class="st15" x1="48.3" y1="16.3" x2="45.2" y2="7.5"/>
			<line class="st15" x1="47.3" y1="6.8" x2="48.3" y2="16.3"/>
			<line class="st15" x1="42.9" y1="8.6" x2="48.3" y2="16.3"/>
			<line class="st15" x1="40.9" y1="10" x2="48.3" y2="16.3"/>
			<line class="st15" x1="48.3" y1="16.3" x2="39.7" y2="11.8"/>
			<line class="st16" x1="40.4" y1="10.9" x2="44.2" y2="13.6"/>
			<line class="st16" x1="39.6" y1="12.8" x2="48.3" y2="16.4"/>
			<line class="st15" x1="41.9" y1="9.3" x2="47.9" y2="15.9"/>
			<line class="st15" x1="48.2" y1="16.3" x2="44" y2="8.1"/>
			<line class="st16" x1="47.3" y1="11.7" x2="46.3" y2="7"/>
			<line class="st16" x1="48.5" y1="10.5" x2="48.7" y2="6.5"/>
		</g>
		<g>
			<line class="st15" x1="48.3" y1="16.3" x2="54.1" y2="8.9"/>
			<line class="st15" x1="52.3" y1="7.6" x2="48.3" y2="16.3"/>
			<line class="st15" x1="55.9" y1="10.8" x2="48.3" y2="16.3"/>
			<line class="st15" x1="57.3" y1="12.7" x2="48.3" y2="16.3"/>
			<line class="st15" x1="56.6" y1="11.7" x2="48.7" y2="16"/>
			<line class="st15" x1="48.4" y1="16.3" x2="55" y2="9.9"/>
			<line class="st16" x1="50.7" y1="12.3" x2="53.1" y2="8.1"/>
			<line class="st16" x1="50" y1="10.8" x2="51.1" y2="6.9"/>
		</g>
	</g>
	<path class="st0" d="M43.3,21.5c-1.2-0.2-2.8-0.4-3.3-0.4s-2.5-1.8-3-1.4s-1.2,0.8-1.5,1.5c-0.3,0.7-0.2,1-1.1,1s-1.8-0.2-1.9,0.2
		c-0.1,0.4,0.4,1-0.8,1.5c-1.2,0.6-1.3,1.1-2.2,0.9s-3.4-1.4-4.7-1.9"/>
	<path class="st0" d="M27,22.7c0.4-0.1,2.5,1.3,3,1.1s1.1-1,1.4-1.4s0.7-1.4,1-1.4s1.3-0.3,1.7-0.7c0.4-0.4,2.1-1.7,2.2-1.9
		c0.1-0.2,2.8,0.2,3.2,0.1S42,19,43,19.2c0.4,0.1,1.9-0.4,1.9-0.4"/>
	<path d="M45.2,22.4c0,0,1.2-0.6,2.1-0.2c3,1.1,9.6,1,8.8,0.7c-1.6-0.8-8.4-1.1-8.7-1.2s-1.5-0.4-1.8-0.4s-1.3,0.4-1.2,0.7
		C44.4,22.2,45.2,22.4,45.2,22.4z"/>
	<path class="st0" d="M45.6,21.3c0,0,0.7-0.5,0.7-1.3s-0.2-1.5-0.2-1.5"/>
	<path d="M38.4,20.1c0,0,1-0.4,1.5-0.3s1.5,0.5,2.3,0.5s2.1,0.8,1.5,0.9c-1.2,0.2-1.9-0.6-2.5-0.5s0.8-0.2-0.6,0.1
		C39.5,21.1,38.4,20.1,38.4,20.1z"/>
	<path d="M36.8,18.7c0,0,1-0.4,1.5-0.3s1.5,0.5,2.3,0.5s2.1,0.8,1.5,0.9c-1.2,0.2-1.9-0.6-2.5-0.5s0.8-0.2-0.6,0.1
		C37.9,19.7,36.8,18.7,36.8,18.7z"/>
	<path d="M30.9,32.5c0,0,0.8-0.7,1.3-0.8c0.5-0.1,1.6-0.5,2.3-0.6c0.7-0.2,3.7-0.9,3.2-0.6c-1,0.5-3.5,1.5-4,1.8
		c-0.5,0.3,0.7-0.4-0.5,0.3C32.3,33,30.9,32.5,30.9,32.5z"/>
	<path d="M36.1,19.7l1.6-0.7c0,0-0.6-0.6-0.3-0.7c0.3,0-0.5,0-1.2,0.4C35.5,19.1,36.1,19.7,36.1,19.7z"/>
	<path d="M29,23.9c0.3,0.1,0.8,0.1,1.4-0.2s0.9-0.6,0.9-0.8s-0.1-0.3-0.3-0.1S29,23.9,29,23.9z"/>
	<path d="M54.5,23.2c1.3,0.1,0.2,0.7,1.7,0.7c1.4,0,2.2-0.8,2.9-0.2c0.7,0.5,1.1,0.4,0.8-0.2c-0.2-0.6,0.5-1.1-0.4-1.2
		c-0.9-0.1-2.5,0-3.2,0.1C55.6,22.4,54.5,23.2,54.5,23.2z"/>
	<path d="M32.8,30.8c-0.1-0.5,0.1-0.8,0.9-0.8s1.4-0.2,1.8-0.4s2.9-0.7,2.9-0.7c0.1,0.4-1.6,1.3-3.1,1.7
		C34,30.8,32.8,30.8,32.8,30.8z"/>
	<path d="M40.8,24.7c0,0,0.1-0.4,0.4-0.4s0.6,0.3,1,0.3s0.6,0,1.1,0s0.9-0.4,0.6,0s0.4,0.4-1.1,0.4s-1.5,0.1-2,0.3
		c-0.5,0.2-0.7,0.2-0.7,0C40.1,25.1,40.8,24.7,40.8,24.7z"/>
	<path d="M54.7,26.1c-1.1-0.4-1.4-0.6-2.1-1.1s-1.4-0.5-0.8-0.5c0.6,0,0.5,0,1,0.2c0.5,0.2,0.6,0.1,1,0.2c0.4,0,0.6,0.3,0.9,0.4
		C56.8,26.2,54.7,26.1,54.7,26.1z"/>
	<path d="M21.5,33.2c0.3,0.1,0.5,0.1,0.9,0s0.6-0.4,1-0.6c1.7-0.8,1-1.3,1.2-1.3s-1.1,0.9-1.8,1.1c-0.6,0.2-1.4,0.5-1.7,0.4
		c-0.3-0.1-1.2-0.2-0.9,0C20.7,33,21.5,33.2,21.5,33.2z"/>
	<path class="st2" d="M20.8,33.8c0.4,0.1,0.7,0.3,1.4,0.1c0.7-0.2,1.2-0.5,1.5-0.5"/>
	<path class="st2" d="M34.1,21c0.3-0.1,0.6-0.4,0.9-0.6c0.3-0.2,0.7-0.5,0.9-0.6"/>
	<path class="st2" d="M36.1,19.1c0.5,0,1.3-0.3,1.5-0.2"/>
	<path class="st1" d="M51.3,23.9c0.5,0.1,1-0.1,1.2,0"/>
	<path d="M47.8,16.3c0.1,0.3,0.3,0.9,0.5,1.3s0.4,1,0.4,1s0.3,0.8,0.5,0c0.2-0.5,0.1-1-0.5-1.6C48.4,16.6,47.8,16.3,47.8,16.3z"/>
	<path d="M59.9,31.3c0,0-0.2-1.2-0.3-1.9s-1.7-1.5-1-1.8c0.3-0.1,1.1,0.4,1.4,1c0.3,0.6,0.2,0.5,0.9,1.6c0.8,1.1,1.2,0.6,1.8,1.6
		c0.6,1,0.9,3.2,0.7,2.7c-0.3-0.4-0.6-0.5-1.5-1.7C61,31.7,59.9,31.3,59.9,31.3z"/>
	<path d="M62.4,28.4c-0.1,0.4-0.4,0.9,0,1.4s0.8,1.2,0.8,1.4s0.7,1,0.7-0.3c0-1.3,0-1.6-0.4-2.3C63.1,27.8,62.4,28.4,62.4,28.4z"/>
	<path d="M38,25.4c0.2-0.6,0.6-0.8,1-0.8c0.4,0,1,0.1,0.8-0.3c-0.2-0.4,0.5-0.5-0.7-0.4c-1.2,0.1-1.1-0.5-1.4,0.1
		c-0.3,0.5-0.4,1.3-0.7,1.6c-0.3,0.4-1.9,1.8-1.1,1.6c0.8-0.2,1.2-0.7,1.5-1.2C37.8,25.4,38,25.4,38,25.4z"/>
	<line class="st0" x1="45.4" y1="16.2" x2="45.7" y2="17.7"/>
	<path d="M26.7,30.7c0.3,0,0.8,0.1,1.2,0s0.9-0.5,0.9-0.5l-0.6-0.3c0,0-0.6-0.5-1.2,0s-2,0.8-1.8,0.9C26.1,30.8,26.7,30.7,26.7,30.7
		z"/>
	<path d="M41.5,26.7c-0.4,0.2-0.9-0.1-0.6-0.3s1.1-0.6,1.6-0.6S43,26,43.3,26s1.4,0.3,1.6,0.3s0.2,0.3-0.5,0.3s-1.6,0.3-1.9,0.3
		S41.5,26.7,41.5,26.7z"/>
	<path d="M30.8,24.1c0.3-0.1,0.7,0.1,0.5,0.2c-0.2,0.1-0.8,0.4-1.2,0.4c-0.3,0-0.5-0.1-0.7-0.1c-0.2,0-1.1-0.2-1.2-0.2
		c-0.1,0-0.1-0.2,0.4-0.2c0.5,0,1,0.1,1.2,0C30,24.2,30.8,24.1,30.8,24.1z"/>
	<path class="st0" d="M24.4,33.3c0.2-0.2,0.7-0.6,1-0.6s0.3,0,0.3,0"/>
	<path class="st0" d="M48.4,19c0.1,0.2,1.6,1.1,0.9,1.3c-0.5,0.1-0.5,1.2-0.7,1.4"/>
	<path d="M47.2,25.8C46.6,25.5,49,25,49.6,25c0.6,0,0.6-0.4,1.3,0c0.7,0.4,0.9,0.6,1.3,1c0.3,0.4,0.3,0.4,0.3,0.4s-0.2,0.4-0.9,0
		c-0.8-0.4-1.3-0.8-1.8-0.8S47.3,25.9,47.2,25.8z"/>
</g>
</svg>
